<svg xmlns="http://www.w3.org/2000/svg" xmlns:xlink="http://www.w3.org/1999/xlink" aria-hidden="true" role="img" class="iconify iconify--logos" width="31.88" height="32" preserveAspectRatio="xMidYMid meet" viewBox="0 0 256 257">
  <defs>
    <linearGradient id="NewGradient1" x1="0%" x2="100%" y1="0%" y2="100%">
      <stop offset="0%" stop-color="#FF5733"></stop>
      <stop offset="100%" stop-color="#C70039"></stop>
    </linearGradient>
    <linearGradient id="NewGradient2" x1="0%" x2="100%" y1="0%" y2="100%">
      <stop offset="0%" stop-color="#FFC300"></stop>
      <stop offset="100%" stop-color="#FF5733"></stop>
    </linearGradient>
  </defs>
  <path fill="url(#NewGradient1)" d="M255 40L135 255c-2.5 4.5-9 4.5-11.5 0L1 40c-2.8-4.8 1.4-10.6 7-9.7l120 21.5c0.8 0.1 1.5 0.1 2.3 0L248 30.3c5.6-0.9 9.8 4.8 7 9.7Z"></path>
  <path fill="url(#NewGradient2)" d="M185 0L96 18a3.3 3.3 0 0 0-2.6 3l-5.5 92.5a3.3 3.3 0 0 0 4 3.4l25-5.7c2.3-0.5 4.4 1.5 4 3.8l-7.4 36c-0.5 2.4 1.8 4.5 4.2 3.8l15.3-4.6c2.4-0.7 4.7 1.4 4.2 3.8l-11.7 56.6c-0.7 3.5 4 5.5 6 2.4l1.3-2 72.5-144.7c1.2-2.4-0.9-5.2-3.5-4.7l-25.5 4.9c-2.4 0.5-4.4-1.8-3.8-4.1l16.7-57.7c0.7-2.3-1.4-4.6-3.8-4.1Z"></path>
</svg>
